<mxfile host="Electron" modified="2024-04-06T00:43:13.929Z" agent="Mozilla/5.0 (Macintosh; Intel Mac OS X 10_15_7) AppleWebKit/537.36 (KHTML, like Gecko) draw.io/22.0.3 Chrome/114.0.5735.289 Electron/25.8.4 Safari/537.36" etag="8pSsokSoLH4mhuJFTVf5" version="22.0.3" type="device">
  <diagram name="Page-1" id="0E0Zyr4JseH824qICWY4">
    <mxGraphModel dx="1968" dy="1436" grid="1" gridSize="10" guides="1" tooltips="1" connect="1" arrows="1" fold="1" page="1" pageScale="1" pageWidth="827" pageHeight="1169" math="0" shadow="0">
      <root>
        <mxCell id="0" />
        <mxCell id="1" parent="0" />
        <mxCell id="iRCH-D6GGWDfQSI1ku7c-15" value="START" style="rounded=0;whiteSpace=wrap;html=1;" vertex="1" parent="1">
          <mxGeometry x="10" y="10" width="260" height="50" as="geometry" />
        </mxCell>
        <mxCell id="iRCH-D6GGWDfQSI1ku7c-16" value="" style="rounded=0;whiteSpace=wrap;html=1;" vertex="1" parent="1">
          <mxGeometry x="10" y="60" width="260" height="370" as="geometry" />
        </mxCell>
        <mxCell id="iRCH-D6GGWDfQSI1ku7c-17" value="Start Button" style="rounded=0;whiteSpace=wrap;html=1;" vertex="1" parent="1">
          <mxGeometry x="70" y="170" width="120" height="60" as="geometry" />
        </mxCell>
        <mxCell id="iRCH-D6GGWDfQSI1ku7c-18" value="rÃ©glage" style="rounded=0;whiteSpace=wrap;html=1;" vertex="1" parent="1">
          <mxGeometry x="10" y="60" width="120" height="60" as="geometry" />
        </mxCell>
        <mxCell id="iRCH-D6GGWDfQSI1ku7c-19" value="Coins" style="rounded=0;whiteSpace=wrap;html=1;" vertex="1" parent="1">
          <mxGeometry x="150" y="60" width="120" height="60" as="geometry" />
        </mxCell>
        <mxCell id="iRCH-D6GGWDfQSI1ku7c-20" value="RUN" style="rounded=0;whiteSpace=wrap;html=1;" vertex="1" parent="1">
          <mxGeometry x="300" y="10" width="260" height="50" as="geometry" />
        </mxCell>
        <mxCell id="iRCH-D6GGWDfQSI1ku7c-21" value="" style="rounded=0;whiteSpace=wrap;html=1;" vertex="1" parent="1">
          <mxGeometry x="300" y="60" width="260" height="370" as="geometry" />
        </mxCell>
        <mxCell id="iRCH-D6GGWDfQSI1ku7c-23" value="Score" style="rounded=0;whiteSpace=wrap;html=1;" vertex="1" parent="1">
          <mxGeometry x="300" y="60" width="120" height="60" as="geometry" />
        </mxCell>
        <mxCell id="iRCH-D6GGWDfQSI1ku7c-24" value="Coins" style="rounded=0;whiteSpace=wrap;html=1;" vertex="1" parent="1">
          <mxGeometry x="440" y="60" width="120" height="60" as="geometry" />
        </mxCell>
        <mxCell id="iRCH-D6GGWDfQSI1ku7c-25" value="Pause" style="rounded=0;whiteSpace=wrap;html=1;" vertex="1" parent="1">
          <mxGeometry x="480" y="120" width="80" height="30" as="geometry" />
        </mxCell>
        <mxCell id="iRCH-D6GGWDfQSI1ku7c-27" value="Pause" style="rounded=0;whiteSpace=wrap;html=1;" vertex="1" parent="1">
          <mxGeometry x="10" y="450" width="260" height="50" as="geometry" />
        </mxCell>
        <mxCell id="iRCH-D6GGWDfQSI1ku7c-28" value="" style="rounded=0;whiteSpace=wrap;html=1;" vertex="1" parent="1">
          <mxGeometry x="10" y="500" width="260" height="370" as="geometry" />
        </mxCell>
        <mxCell id="iRCH-D6GGWDfQSI1ku7c-32" value="Continue" style="rounded=0;whiteSpace=wrap;html=1;" vertex="1" parent="1">
          <mxGeometry x="100" y="540" width="80" height="30" as="geometry" />
        </mxCell>
        <mxCell id="iRCH-D6GGWDfQSI1ku7c-33" value="Restart" style="rounded=0;whiteSpace=wrap;html=1;" vertex="1" parent="1">
          <mxGeometry x="100" y="630" width="80" height="30" as="geometry" />
        </mxCell>
        <mxCell id="iRCH-D6GGWDfQSI1ku7c-34" value="Quit" style="rounded=0;whiteSpace=wrap;html=1;" vertex="1" parent="1">
          <mxGeometry x="100" y="740" width="80" height="30" as="geometry" />
        </mxCell>
        <mxCell id="iRCH-D6GGWDfQSI1ku7c-35" value="Fail" style="rounded=0;whiteSpace=wrap;html=1;" vertex="1" parent="1">
          <mxGeometry x="300" y="450" width="260" height="50" as="geometry" />
        </mxCell>
        <mxCell id="iRCH-D6GGWDfQSI1ku7c-36" value="" style="rounded=0;whiteSpace=wrap;html=1;" vertex="1" parent="1">
          <mxGeometry x="300" y="500" width="260" height="370" as="geometry" />
        </mxCell>
        <mxCell id="iRCH-D6GGWDfQSI1ku7c-37" value="Start New Game" style="rounded=0;whiteSpace=wrap;html=1;" vertex="1" parent="1">
          <mxGeometry x="390" y="640" width="80" height="30" as="geometry" />
        </mxCell>
        <mxCell id="iRCH-D6GGWDfQSI1ku7c-39" value="Classement" style="rounded=0;whiteSpace=wrap;html=1;" vertex="1" parent="1">
          <mxGeometry x="401" y="790" width="80" height="30" as="geometry" />
        </mxCell>
        <mxCell id="iRCH-D6GGWDfQSI1ku7c-40" value="Score" style="rounded=0;whiteSpace=wrap;html=1;" vertex="1" parent="1">
          <mxGeometry x="310" y="510" width="80" height="30" as="geometry" />
        </mxCell>
        <mxCell id="iRCH-D6GGWDfQSI1ku7c-41" value="Coins" style="rounded=0;whiteSpace=wrap;html=1;" vertex="1" parent="1">
          <mxGeometry x="470" y="510" width="80" height="30" as="geometry" />
        </mxCell>
        <mxCell id="iRCH-D6GGWDfQSI1ku7c-43" value="Classement" style="rounded=0;whiteSpace=wrap;html=1;" vertex="1" parent="1">
          <mxGeometry x="20" y="360" width="80" height="60" as="geometry" />
        </mxCell>
        <mxCell id="iRCH-D6GGWDfQSI1ku7c-44" value="Shop" style="rounded=0;whiteSpace=wrap;html=1;" vertex="1" parent="1">
          <mxGeometry x="200" y="360" width="60" height="60" as="geometry" />
        </mxCell>
        <mxCell id="iRCH-D6GGWDfQSI1ku7c-45" value="Identity" style="rounded=0;whiteSpace=wrap;html=1;" vertex="1" parent="1">
          <mxGeometry x="110" y="360" width="80" height="60" as="geometry" />
        </mxCell>
        <mxCell id="iRCH-D6GGWDfQSI1ku7c-46" value="IDENTITY" style="rounded=0;whiteSpace=wrap;html=1;" vertex="1" parent="1">
          <mxGeometry x="580" y="10" width="260" height="50" as="geometry" />
        </mxCell>
        <mxCell id="iRCH-D6GGWDfQSI1ku7c-47" value="" style="rounded=0;whiteSpace=wrap;html=1;" vertex="1" parent="1">
          <mxGeometry x="580" y="60" width="260" height="370" as="geometry" />
        </mxCell>
        <mxCell id="iRCH-D6GGWDfQSI1ku7c-49" value="Actual Skin" style="rounded=0;whiteSpace=wrap;html=1;" vertex="1" parent="1">
          <mxGeometry x="580" y="60" width="260" height="110" as="geometry" />
        </mxCell>
        <mxCell id="iRCH-D6GGWDfQSI1ku7c-52" value="Other Skin" style="rounded=0;whiteSpace=wrap;html=1;" vertex="1" parent="1">
          <mxGeometry x="590" y="190" width="140" height="50" as="geometry" />
        </mxCell>
        <mxCell id="iRCH-D6GGWDfQSI1ku7c-55" value="Other Skin" style="rounded=0;whiteSpace=wrap;html=1;" vertex="1" parent="1">
          <mxGeometry x="590" y="260" width="140" height="50" as="geometry" />
        </mxCell>
        <mxCell id="iRCH-D6GGWDfQSI1ku7c-56" value="Other Skin" style="rounded=0;whiteSpace=wrap;html=1;" vertex="1" parent="1">
          <mxGeometry x="590" y="330" width="140" height="50" as="geometry" />
        </mxCell>
        <mxCell id="iRCH-D6GGWDfQSI1ku7c-57" value="Select" style="rounded=0;whiteSpace=wrap;html=1;" vertex="1" parent="1">
          <mxGeometry x="750" y="190" width="64" height="50" as="geometry" />
        </mxCell>
        <mxCell id="iRCH-D6GGWDfQSI1ku7c-59" value="Select" style="rounded=0;whiteSpace=wrap;html=1;" vertex="1" parent="1">
          <mxGeometry x="750" y="260" width="64" height="50" as="geometry" />
        </mxCell>
        <mxCell id="iRCH-D6GGWDfQSI1ku7c-60" value="Select" style="rounded=0;whiteSpace=wrap;html=1;" vertex="1" parent="1">
          <mxGeometry x="750" y="330" width="64" height="50" as="geometry" />
        </mxCell>
        <mxCell id="iRCH-D6GGWDfQSI1ku7c-61" value="SHOP" style="rounded=0;whiteSpace=wrap;html=1;" vertex="1" parent="1">
          <mxGeometry x="860" y="10" width="260" height="50" as="geometry" />
        </mxCell>
        <mxCell id="iRCH-D6GGWDfQSI1ku7c-62" value="" style="rounded=0;whiteSpace=wrap;html=1;" vertex="1" parent="1">
          <mxGeometry x="860" y="60" width="260" height="370" as="geometry" />
        </mxCell>
        <mxCell id="iRCH-D6GGWDfQSI1ku7c-63" value="Distributeur" style="rounded=0;whiteSpace=wrap;html=1;" vertex="1" parent="1">
          <mxGeometry x="930" y="130" width="130" height="150" as="geometry" />
        </mxCell>
        <mxCell id="iRCH-D6GGWDfQSI1ku7c-70" value="Coins" style="rounded=0;whiteSpace=wrap;html=1;" vertex="1" parent="1">
          <mxGeometry x="1030" y="70" width="80" height="30" as="geometry" />
        </mxCell>
        <mxCell id="iRCH-D6GGWDfQSI1ku7c-71" value="GET NEW" style="rounded=0;whiteSpace=wrap;html=1;" vertex="1" parent="1">
          <mxGeometry x="963" y="320" width="64" height="50" as="geometry" />
        </mxCell>
        <mxCell id="iRCH-D6GGWDfQSI1ku7c-72" value="Go Back" style="rounded=0;whiteSpace=wrap;html=1;" vertex="1" parent="1">
          <mxGeometry x="870" y="70" width="44" height="35" as="geometry" />
        </mxCell>
        <mxCell id="iRCH-D6GGWDfQSI1ku7c-73" value="Go Back" style="rounded=0;whiteSpace=wrap;html=1;" vertex="1" parent="1">
          <mxGeometry x="790" y="70" width="44" height="30" as="geometry" />
        </mxCell>
        <mxCell id="iRCH-D6GGWDfQSI1ku7c-74" value="Classeme,t" style="rounded=0;whiteSpace=wrap;html=1;" vertex="1" parent="1">
          <mxGeometry x="580" y="450" width="260" height="50" as="geometry" />
        </mxCell>
        <mxCell id="iRCH-D6GGWDfQSI1ku7c-75" value="" style="rounded=0;whiteSpace=wrap;html=1;" vertex="1" parent="1">
          <mxGeometry x="580" y="500" width="260" height="370" as="geometry" />
        </mxCell>
        <mxCell id="iRCH-D6GGWDfQSI1ku7c-76" value="Score" style="rounded=0;whiteSpace=wrap;html=1;" vertex="1" parent="1">
          <mxGeometry x="730" y="560" width="100" height="40" as="geometry" />
        </mxCell>
        <mxCell id="iRCH-D6GGWDfQSI1ku7c-79" value="Go Back" style="rounded=0;whiteSpace=wrap;html=1;" vertex="1" parent="1">
          <mxGeometry x="590" y="510" width="44" height="35" as="geometry" />
        </mxCell>
        <mxCell id="iRCH-D6GGWDfQSI1ku7c-82" value="User" style="rounded=0;whiteSpace=wrap;html=1;" vertex="1" parent="1">
          <mxGeometry x="634" y="560" width="86" height="40" as="geometry" />
        </mxCell>
        <mxCell id="iRCH-D6GGWDfQSI1ku7c-83" value="Rank" style="rounded=0;whiteSpace=wrap;html=1;" vertex="1" parent="1">
          <mxGeometry x="587" y="560" width="43" height="40" as="geometry" />
        </mxCell>
        <mxCell id="iRCH-D6GGWDfQSI1ku7c-84" value="Score" style="rounded=0;whiteSpace=wrap;html=1;" vertex="1" parent="1">
          <mxGeometry x="730" y="610" width="100" height="40" as="geometry" />
        </mxCell>
        <mxCell id="iRCH-D6GGWDfQSI1ku7c-85" value="User" style="rounded=0;whiteSpace=wrap;html=1;" vertex="1" parent="1">
          <mxGeometry x="634" y="610" width="86" height="40" as="geometry" />
        </mxCell>
        <mxCell id="iRCH-D6GGWDfQSI1ku7c-86" value="Rank" style="rounded=0;whiteSpace=wrap;html=1;" vertex="1" parent="1">
          <mxGeometry x="580" y="610" width="43" height="40" as="geometry" />
        </mxCell>
        <mxCell id="iRCH-D6GGWDfQSI1ku7c-87" value="Score" style="rounded=0;whiteSpace=wrap;html=1;" vertex="1" parent="1">
          <mxGeometry x="730" y="660" width="100" height="40" as="geometry" />
        </mxCell>
        <mxCell id="iRCH-D6GGWDfQSI1ku7c-88" value="User" style="rounded=0;whiteSpace=wrap;html=1;" vertex="1" parent="1">
          <mxGeometry x="634" y="660" width="86" height="40" as="geometry" />
        </mxCell>
        <mxCell id="iRCH-D6GGWDfQSI1ku7c-89" value="Rank" style="rounded=0;whiteSpace=wrap;html=1;" vertex="1" parent="1">
          <mxGeometry x="587" y="660" width="43" height="40" as="geometry" />
        </mxCell>
        <mxCell id="iRCH-D6GGWDfQSI1ku7c-90" value="Score" style="rounded=0;whiteSpace=wrap;html=1;" vertex="1" parent="1">
          <mxGeometry x="730" y="705" width="100" height="40" as="geometry" />
        </mxCell>
        <mxCell id="iRCH-D6GGWDfQSI1ku7c-91" value="User" style="rounded=0;whiteSpace=wrap;html=1;" vertex="1" parent="1">
          <mxGeometry x="634" y="705" width="86" height="40" as="geometry" />
        </mxCell>
        <mxCell id="iRCH-D6GGWDfQSI1ku7c-92" value="Rank" style="rounded=0;whiteSpace=wrap;html=1;" vertex="1" parent="1">
          <mxGeometry x="587" y="705" width="43" height="40" as="geometry" />
        </mxCell>
        <mxCell id="iRCH-D6GGWDfQSI1ku7c-93" value="Score" style="rounded=0;whiteSpace=wrap;html=1;" vertex="1" parent="1">
          <mxGeometry x="730" y="760" width="100" height="40" as="geometry" />
        </mxCell>
        <mxCell id="iRCH-D6GGWDfQSI1ku7c-94" value="User" style="rounded=0;whiteSpace=wrap;html=1;" vertex="1" parent="1">
          <mxGeometry x="634" y="760" width="86" height="40" as="geometry" />
        </mxCell>
        <mxCell id="iRCH-D6GGWDfQSI1ku7c-95" value="Rank" style="rounded=0;whiteSpace=wrap;html=1;" vertex="1" parent="1">
          <mxGeometry x="587" y="760" width="43" height="40" as="geometry" />
        </mxCell>
        <mxCell id="iRCH-D6GGWDfQSI1ku7c-96" value="Score" style="rounded=0;whiteSpace=wrap;html=1;" vertex="1" parent="1">
          <mxGeometry x="731.5" y="810" width="100" height="40" as="geometry" />
        </mxCell>
        <mxCell id="iRCH-D6GGWDfQSI1ku7c-97" value="User" style="rounded=0;whiteSpace=wrap;html=1;" vertex="1" parent="1">
          <mxGeometry x="635.5" y="810" width="86" height="40" as="geometry" />
        </mxCell>
        <mxCell id="iRCH-D6GGWDfQSI1ku7c-98" value="Rank" style="rounded=0;whiteSpace=wrap;html=1;" vertex="1" parent="1">
          <mxGeometry x="588.5" y="810" width="43" height="40" as="geometry" />
        </mxCell>
        <mxCell id="iRCH-D6GGWDfQSI1ku7c-99" value="RÃ©glale" style="rounded=0;whiteSpace=wrap;html=1;" vertex="1" parent="1">
          <mxGeometry x="860" y="445" width="260" height="50" as="geometry" />
        </mxCell>
        <mxCell id="iRCH-D6GGWDfQSI1ku7c-100" value="" style="rounded=0;whiteSpace=wrap;html=1;" vertex="1" parent="1">
          <mxGeometry x="860" y="495" width="260" height="370" as="geometry" />
        </mxCell>
        <mxCell id="iRCH-D6GGWDfQSI1ku7c-102" value="Go back" style="rounded=0;whiteSpace=wrap;html=1;" vertex="1" parent="1">
          <mxGeometry x="860" y="495" width="120" height="60" as="geometry" />
        </mxCell>
        <mxCell id="iRCH-D6GGWDfQSI1ku7c-103" value="Resolution" style="rounded=0;whiteSpace=wrap;html=1;" vertex="1" parent="1">
          <mxGeometry x="930" y="595" width="120" height="60" as="geometry" />
        </mxCell>
        <mxCell id="iRCH-D6GGWDfQSI1ku7c-107" value="Volume" style="rounded=0;whiteSpace=wrap;html=1;" vertex="1" parent="1">
          <mxGeometry x="930" y="680" width="120" height="60" as="geometry" />
        </mxCell>
        <mxCell id="iRCH-D6GGWDfQSI1ku7c-108" value="Quite game" style="rounded=0;whiteSpace=wrap;html=1;" vertex="1" parent="1">
          <mxGeometry x="930" y="765" width="120" height="60" as="geometry" />
        </mxCell>
      </root>
    </mxGraphModel>
  </diagram>
</mxfile>
